<svg width="19" height="19" viewBox="0 0 19 19" fill="none" xmlns="http://www.w3.org/2000/svg">
<path d="M9.55436 8.1563L9.3416 7.09251C9.19841 6.37656 8.80736 5.73402 8.23722 5.27791L7.95436 5.05162C7.69861 4.84702 7.41208 4.6842 7.10541 4.5692L6.11443 4.19758C5.44889 3.948 4.71784 3.93447 4.04352 4.15924L3.77933 4.24731C3.41225 4.36967 3.07129 4.5596 2.77403 4.80732L1.965 5.4815C1.56919 5.81135 1.26173 6.23456 1.07038 6.71294L0.493042 8.1563H9.55436Z" fill="#FFF8F1"/>
<path d="M9.68279 15.4673C10.126 14.1375 10.1809 12.709 9.84094 11.3491L9.12019 8.46613H1.05189L0.331135 11.3491C-0.00881932 12.709 0.0460465 14.1375 0.489296 15.4673L0.741571 16.2241L0.431251 16.8447L1.05189 17.4654H9.12019L9.74083 16.8447L9.43051 16.2241L9.68279 15.4673Z" fill="#EB8316"/>
<path d="M7.57379 9.50859C7.20395 9.52767 6.83682 9.5825 6.47754 9.67232C5.56366 9.90079 4.60758 9.90079 3.6937 9.67232C2.97345 9.49226 2.22511 9.45366 1.49016 9.55865L0.984948 9.63082C0.832945 9.65254 0.678288 9.61713 0.550868 9.53146C0.423447 9.44578 0.33231 9.31591 0.295069 9.16695L0.164344 8.64404C0.135716 8.52953 0.140336 8.40923 0.177662 8.29725L0.272167 8.01373C0.317077 7.879 0.406835 7.76375 0.526461 7.68721C0.646088 7.61067 0.788346 7.57747 0.929495 7.59315L3.06658 7.83061C3.17131 7.84224 3.27566 7.85673 3.37964 7.87405L4.13194 7.99944C4.76337 8.10468 5.40787 8.10468 6.0393 7.99944L6.79159 7.87405C6.89554 7.85673 6.99989 7.84225 7.10466 7.83061L7.56817 7.77911" fill="#1C1C1C"/>
<path d="M3.84497 5.2077H4.46561V5.51802H3.84497V5.2077Z" fill="#FCB298"/>
<path d="M2.60364 5.82776H3.22428V6.13808H2.60364V5.82776Z" fill="#FCB298"/>
<path d="M3.22369 6.75909H3.84433V7.06941H3.22369V6.75909Z" fill="#FCB298"/>
<path d="M4.77637 7.06793H5.39701V7.37825H4.77637V7.06793Z" fill="#FCB298"/>
<path d="M4.46509 6.1366H5.08573V6.44692H4.46509V6.1366Z" fill="#FCB298"/>
<path d="M5.39642 4.89642H6.01706V5.20674H5.39642V4.89642Z" fill="#FCB298"/>
<path d="M6.32776 5.82776H6.9484V6.13808H6.32776V5.82776Z" fill="#FCB298"/>
<path d="M6.01654 6.75909H6.63718V7.06941H6.01654V6.75909Z" fill="#FCB298"/>
<path d="M3.84497 5.2077H4.46561V5.51802H3.84497V5.2077Z" fill="#EB8316"/>
<path d="M2.60364 5.82776H3.22428V6.13808H2.60364V5.82776Z" fill="#EB8316"/>
<path d="M3.22369 6.75909H3.84433V7.06941H3.22369V6.75909Z" fill="#EB8316"/>
<path d="M4.77637 7.06793H5.39701V7.37825H4.77637V7.06793Z" fill="#EB8316"/>
<path d="M4.46509 6.1366H5.08573V6.44692H4.46509V6.1366Z" fill="#EB8316"/>
<path d="M5.39642 4.89642H6.01706V5.20674H5.39642V4.89642Z" fill="#EB8316"/>
<path d="M6.32776 5.82776H6.9484V6.13808H6.32776V5.82776Z" fill="#EB8316"/>
<path d="M7.56915 6.44788H8.18979V6.7582H7.56915V6.44788Z" fill="#FCB298"/>
<path d="M6.01654 6.75909H6.63718V7.06941H6.01654V6.75909Z" fill="#EB8316"/>
<path d="M13.7743 18.11V4.45593L12.2227 2.59402V1.04242H9.11953V2.59402L7.56793 4.45593V18.11H13.7743Z" fill="#FDC75B"/>
<path d="M10.6721 4.45579H13.7753L12.2237 2.59387H9.12054L10.6721 4.45579Z" fill="#1C1C1C"/>
<path d="M10.672 4.45654H13.7752V18.1106H10.672V4.45654Z" fill="#EB8316"/>
<path d="M18.0164 16.6628L17.8087 16.2475V5.34711C17.8087 5.16515 17.7687 4.9854 17.6916 4.82062C17.6144 4.65583 17.5019 4.51003 17.3621 4.39354L16.3935 3.58633C16.2537 3.46983 16.1412 3.32403 16.064 3.15925C15.9868 2.99446 15.9468 2.81472 15.9468 2.63275V1.66254H14.0849V2.63275C14.0849 2.81472 14.0449 2.99446 13.9677 3.15925C13.8905 3.32403 13.7781 3.46984 13.6383 3.58633L12.6696 4.39354C12.5298 4.51003 12.4174 4.65583 12.3402 4.82062C12.263 4.9854 12.223 5.16515 12.223 5.34711V16.2475L12.0154 16.6628C11.9491 16.7953 11.9324 16.9472 11.9684 17.0909L12.1055 17.6393C12.139 17.7736 12.2165 17.8928 12.3256 17.978C12.4347 18.0632 12.5692 18.1095 12.7076 18.1095H17.3242C17.4626 18.1095 17.597 18.0632 17.7061 17.978C17.8152 17.8928 17.8927 17.7736 17.9263 17.6393L18.0634 17.0909C18.0993 16.9472 18.0826 16.7953 18.0164 16.6628Z" fill="#FFDFBF"/>
<path d="M12.2234 5.34766V10.0417H17.8091V5.34766C17.8091 5.25648 17.7991 5.16558 17.7792 5.0766H12.2533C12.2334 5.16558 12.2234 5.25648 12.2234 5.34766Z" fill="#FDC75B"/>
<path d="M15.6368 0.111084H14.3955C14.0527 0.111084 13.7748 0.388953 13.7748 0.731723V1.35236C13.7748 1.69513 14.0527 1.973 14.3955 1.973H15.6368C15.9795 1.973 16.2574 1.69513 16.2574 1.35236V0.731723C16.2574 0.388953 15.9795 0.111084 15.6368 0.111084Z" fill="#1C1C1C"/>
<path d="M12.2234 14.8521H17.8091V15.1624H12.2234V14.8521Z" fill="#EB8316"/>
<path d="M12.2234 13.6095H17.8091V13.9198H12.2234V13.6095Z" fill="#EB8316"/>
<path d="M12.2234 12.3693H17.8091V12.6796H12.2234V12.3693Z" fill="#EB8316"/>
<path d="M12.2234 11.1267H17.8091V11.437H12.2234V11.1267Z" fill="#EB8316"/>
<path d="M14.3932 5.6099L14.2248 5.53619L14.1511 5.70459C14.0701 5.8897 14.0493 6.0956 14.0919 6.29314C14.1344 6.49068 14.238 6.66983 14.3879 6.80523L14.9659 6.57916C14.9843 6.37793 14.9388 6.17603 14.836 6.00208C14.7332 5.82812 14.5783 5.69091 14.3932 5.6099Z" fill="#EB8316"/>
<path d="M15.6444 8.31323L15.0664 8.53931C15.0481 8.74053 15.0935 8.94243 15.1963 9.11638C15.2991 9.29034 15.454 9.42755 15.6392 9.50856L15.8076 9.58227L15.8813 9.41387C15.9623 9.22876 15.983 9.02286 15.9405 8.82532C15.898 8.62778 15.7944 8.44863 15.6444 8.31323Z" fill="#EB8316"/>
<path d="M16.8707 6.69424C16.6856 6.61322 16.4797 6.5925 16.2822 6.63501C16.0846 6.67752 15.9055 6.78111 15.7701 6.93109L15.9962 7.50909C16.1974 7.52742 16.3993 7.48196 16.5732 7.37917C16.7472 7.27637 16.8844 7.12145 16.9654 6.93634L17.0391 6.76794L16.8707 6.69424Z" fill="#EB8316"/>
<path d="M14.036 7.60956C13.8348 7.59123 13.6329 7.63669 13.4589 7.73949C13.285 7.84228 13.1478 7.9972 13.0667 8.18231L12.993 8.35071L13.1614 8.42441C13.3465 8.50543 13.5525 8.52615 13.75 8.48364C13.9475 8.44113 14.1267 8.33754 14.2621 8.18756L14.036 7.60956Z" fill="#EB8316"/>
<path d="M15.9814 5.76918L15.8951 5.5484L15.6743 5.63475C15.4801 5.7107 15.3109 5.83923 15.1857 6.00592C15.0604 6.17262 14.9841 6.3709 14.9651 6.57855L15.7692 6.93047C15.9089 6.7757 16.0028 6.58508 16.0403 6.37997C16.0778 6.17485 16.0574 5.96336 15.9814 5.76918Z" fill="#EB8316"/>
<path d="M14.3885 6.80551C14.2337 6.6658 14.0431 6.57194 13.838 6.53446C13.6329 6.49698 13.4214 6.51736 13.2272 6.59331L13.0064 6.67966L13.0928 6.90044C13.1687 7.09462 13.2972 7.26382 13.4639 7.38907C13.6306 7.51432 13.8289 7.59068 14.0366 7.60959L14.3885 6.80551Z" fill="#EB8316"/>
<path d="M15.0664 8.53869L14.2624 8.18677C14.1226 8.34154 14.0288 8.53216 13.9913 8.73727C13.9538 8.94239 13.9742 9.15388 14.0502 9.34806L14.1365 9.56884L14.3573 9.48249C14.5515 9.40654 14.7207 9.27801 14.8459 9.11132C14.9712 8.94462 15.0475 8.74634 15.0664 8.53869Z" fill="#EB8316"/>
<path d="M16.9406 8.21751C16.8646 8.02333 16.7361 7.85413 16.5694 7.72888C16.4027 7.60363 16.2044 7.52727 15.9968 7.50836L15.6448 8.31244C15.7996 8.45215 15.9902 8.54601 16.1953 8.58349C16.4005 8.62097 16.612 8.60059 16.8061 8.52464L17.0269 8.43828L16.9406 8.21751Z" fill="#EB8316"/>
<path d="M17.8865 16.4026L17.809 16.2474V16.0923H12.2232V16.2474L12.1456 16.4026H17.8865Z" fill="#EB8316"/>
<path d="M16.0012 7.756C16.1055 7.21415 15.7508 6.69037 15.209 6.58608C14.6671 6.4818 14.1433 6.83651 14.039 7.37835C13.9348 7.92019 14.2895 8.44398 14.8313 8.54826C15.3732 8.65255 15.8969 8.29784 16.0012 7.756Z" fill="#FDC75B"/>
</svg>
